<svg id="abcca033-2c1f-44c9-85fc-3aee3d04dd44" data-name="Layer 1" xmlns="http://www.w3.org/2000/svg" viewBox="0 0 112.57 112.56"><path d="M29.87,52.51,26.5,52.1c-.66-.08-.84-.32-.77-.92l-.31,0-.25,2.06.31,0c.08-.6.31-.79,1-.7l3.3.4c1.37.17,2.16.65,2,1.86-.11.9-.67,1.32-2.36,1.09l-3.31-.4c-.66-.09-.84-.32-.76-.92l-.31,0-.37,3,.31,0c.07-.6.3-.78,1-.7l3.58.43c1.45.19,2.4-.54,2.6-2.2s-.59-2.37-2.22-2.58" transform="translate(-21.72 -5.02)"/><path d="M27.34,44.72l-.3-.08-.54,2.15.31.08c.28-.79.73-.75,1.51-.55l3.08.76L26,48.8l-.52,2.08.3.07a1.69,1.69,0,0,1,.87-.77l4.23,1c.84.21,1.08.43,1,1.25l.3.08.58-2.32-.31-.07c-.41.81-.63.85-1.63.61l-3.52-.88,6-2,.19-.74L28.43,45.9c-.81-.21-1.14-.37-1.09-1.18" transform="translate(-21.72 -5.02)"/><path d="M33.26,44.22,29,42.66c-.62-.23-.75-.5-.54-1.07l-.3-.1-1,2.83.29.1c.21-.56.48-.69,1.1-.46l4.29,1.56c.62.23.75.49.54,1.06l.3.11,1-2.84-.3-.1c-.21.57-.48.69-1.1.47" transform="translate(-21.72 -5.02)"/><path d="M41.22,30.15l-1.09-.27a2.13,2.13,0,0,0-1-.1,1.74,1.74,0,1,0-3-1.82l-2.23,2.85.25.19c.37-.48.66-.51,1.18-.1L39,33.71c.52.4.56.7.18,1.18l.25.19,1.86-2.38L41,32.51c-.38.48-.67.52-1.19.11l-1.67-1.3c.22-.28.5-.48,1.77-.13l1.24.34a8.71,8.71,0,0,0,.85.2l1.28-1.63-.24-.2c-.49.53-1.13.4-1.83.25m-3.32.76-.1.12-1.61-1.25c-.42-.33-.59-.49-.25-.93.56-.71,1.13-.89,1.88-.3s.93,1.26.08,2.36" transform="translate(-21.72 -5.02)"/><path d="M42,25.27l-.47.22c-.52.25-1.18.61-1.73.07a1,1,0,0,1,0-1.48,3,3,0,0,1,2.71-.27l.14-.31-1.84-1.05a1,1,0,0,1-.21.7.94.94,0,0,1-.32.19,2.58,2.58,0,0,0-.79.52,1.89,1.89,0,0,0,.08,2.75c1.14,1.14,2.47.47,3.55,0,.52-.25,1.16-.56,1.71,0a1.25,1.25,0,0,1,0,1.73c-.73.72-2.05.56-3,.27l-.15.32,1.94,1.16c.17-.58.21-.64.31-.74a1,1,0,0,1,.38-.23,3.25,3.25,0,0,0,.9-.61,2.11,2.11,0,0,0-.1-3c-1-1-2.09-.66-3.09-.19" transform="translate(-21.72 -5.02)"/><path d="M47.33,24.66l-3-3.45c-.43-.49-.41-.79.05-1.19l-.21-.23-2.27,2,.2.23c.46-.4.76-.38,1.19.12l3,3.44c.44.51.41.8,0,1.19l.2.24,2.28-2-.21-.23c-.46.4-.75.38-1.18-.12" transform="translate(-21.72 -5.02)"/><path d="M48.56,16.82a3.38,3.38,0,0,0-1.31.63l-2.37,1.73.18.25c.49-.36.78-.31,1.17.22l2.68,3.69c.39.54.34.83-.15,1.19l.19.25,2.37-1.72a3.68,3.68,0,0,0,1-1.07A3.33,3.33,0,0,0,52,18.37a3.36,3.36,0,0,0-3.45-1.55m2.55,5.93c-.6.44-.72.27-1.14-.3l-2.58-3.56c-.35-.48-.52-.71,0-1.1.92-.67,1.91-.65,3.28,1.24,1.53,2.1,1.28,3.1.43,3.72" transform="translate(-21.72 -5.02)"/><path d="M65,11.83a.85.85,0,1,0,1,.6.85.85,0,0,0-1-.6" transform="translate(-21.72 -5.02)"/><path d="M72.3,8.39a3.33,3.33,0,0,0-1.45-.08l-2.91.36L68,9c.6-.07.84.1.92.76l.55,4.53c.09.66-.1.9-.7,1l0,.32,2.9-.36a3.51,3.51,0,0,0,1.44-.42,3.33,3.33,0,0,0,1.44-3.35,3.39,3.39,0,0,0-2.27-3m-.64,6.43c-.74.09-.76-.11-.85-.82l-.54-4.35c-.07-.59-.1-.88.54-1,1.14-.14,2,.36,2.28,2.67.31,2.58-.39,3.33-1.43,3.46" transform="translate(-21.72 -5.02)"/><path d="M80.5,13.06l-.22-.14a3.48,3.48,0,0,1-2.64,1.52c-.6,0-.65-.36-.65-.91v-2h.19a1.27,1.27,0,0,1,1.48,1.17H79V10h-.33c-.29,1-.66,1.12-1.5,1.12H77V9.24c0-.7,0-1,.75-1a3.15,3.15,0,0,1,2.4,1.52l.26-.12-.53-1.77H74.79V8.2c.61,0,.82.21.82.87v4.57c0,.66-.21.86-.82.86v.31h5.08Z" transform="translate(-21.72 -5.02)"/><path d="M82.51,12.05a.86.86,0,0,0,.92-.77.87.87,0,0,0-.77-.93.85.85,0,0,0-.15,1.7" transform="translate(-21.72 -5.02)"/><path d="M92.72,11.05l-1.11,3.42c-.45,1.4.08,2.46,1.67,3s2.44-.12,3-1.69l1-3.23c.21-.63.47-.76,1-.57l.09-.3-2-.64-.1.3c.58.18.72.45.51,1.08l-1,3.16c-.43,1.31-1,2-2.21,1.62-.86-.28-1.18-.91-.63-2.53l1-3.17c.2-.63.46-.77,1-.58l.1-.29-2.87-.94-.09.3c.57.19.7.45.5,1.08" transform="translate(-21.72 -5.02)"/><path d="M101.57,18.64a3.47,3.47,0,0,1-3,.27c-.54-.25-.43-.6-.2-1.1L99.19,16l.16.08a1.28,1.28,0,0,1,.86,1.69l.29.14,1.16-2.48-.3-.14a1.26,1.26,0,0,1-1.83.38l-.15-.07.77-1.67c.3-.64.42-.89,1.1-.58a3.13,3.13,0,0,1,1.53,2.4h.29l.27-1.83-4.61-2.15-.13.29c.55.26.65.53.37,1.14l-1.92,4.13c-.28.6-.57.7-1.11.44L95.8,18l4.61,2.15,1.31-1.33Z" transform="translate(-21.72 -5.02)"/><path d="M109.67,18.34l.17-.27L108,16.9l-.17.27c.67.51.48.93,0,1.61l-1.67,2.68,0-5.66-1.81-1.13-.18.26a1.71,1.71,0,0,1,.48,1.07l-2.31,3.68c-.46.74-.74.9-1.5.6l-.17.26,2,1.26.16-.26c-.64-.64-.61-.87-.07-1.74l1.93-3.08,0,6.36.65.4L108.21,19c.44-.7.7-1,1.46-.67" transform="translate(-21.72 -5.02)"/><path d="M112.78,24.9c1.35-1.6,1.39-3.49-.06-4.7s-3.41-.65-4.7.89-1.39,3.48,0,4.66,3.52.62,4.74-.85m-4.53.54c-.7-.58-.58-1.65.94-3.47s2.59-2.08,3.33-1.46.66,1.64-.9,3.5c-.83,1-2.2,2.42-3.37,1.43" transform="translate(-21.72 -5.02)"/><path d="M114.18,24.29c-1.18,1.1-.56,2.45-.1,3.55.23.52.52,1.18,0,1.7a1.22,1.22,0,0,1-1.72-.07c-.7-.74-.49-2.06-.17-3l-.31-.16-1.23,1.89c.57.2.64.24.73.35a1.36,1.36,0,0,1,.22.39,3.32,3.32,0,0,0,.57.91,2.09,2.09,0,0,0,3,0c1-.95.73-2.06.3-3.07l-.2-.49c-.23-.52-.57-1.19,0-1.72a1,1,0,0,1,1.48.06c.58.62.44,1.9.17,2.72l.31.15,1.11-1.8a1.06,1.06,0,0,1-.7-.24.9.9,0,0,1-.17-.32,2.54,2.54,0,0,0-.49-.8,1.88,1.88,0,0,0-2.75,0" transform="translate(-21.72 -5.02)"/><path d="M117.58,30.1a.87.87,0,0,0-.17,1.19.85.85,0,0,0,1.36-1,.86.86,0,0,0-1.19-.17" transform="translate(-21.72 -5.02)"/><path d="M129.07,52.88c-1.61.16-1.93,1.61-2.22,2.77-.13.55-.29,1.25-1.06,1.33a1.22,1.22,0,0,1-1.33-1.1c-.11-1,.85-1.94,1.69-2.52L126,53l-2.11.78c.34.49.36.56.38.71a1.35,1.35,0,0,1-.07.44A3.24,3.24,0,0,0,124.1,56a2.09,2.09,0,0,0,2.4,1.82c1.39-.14,1.82-1.2,2.09-2.27l.13-.52c.13-.55.26-1.29,1-1.37a1,1,0,0,1,1.14.93c.09.85-.79,1.79-1.5,2.28l.15.3,2-.77a1,1,0,0,1-.42-.6.91.91,0,0,1,.06-.36,2.34,2.34,0,0,0,.09-.95,1.87,1.87,0,0,0-2.18-1.65" transform="translate(-21.72 -5.02)"/><path d="M124.51,74.76c0,.46.4.26.13-1.1a4,4,0,0,1,.4-1.55c.29-.33.48-.7.28-.9a2.56,2.56,0,0,1-.11-1.57c.08-.54.53-3.1.25-3.18,0,0-.34-.09-.42.61s-.22,2.67-.33,3.11-.95,1.3-1,1.79.37,1.18.45,1.46a4.38,4.38,0,0,1,.38,1.33" transform="translate(-21.72 -5.02)"/><path d="M130.27,68.57c-.23.3-.72.38-.89.65s.1,1.61,0,2a4.83,4.83,0,0,1-1,1.34.84.84,0,0,0-.07,1.06,5.91,5.91,0,0,1-.29,2.55c-.19.52-.58,1.65-.27,1.63s.93-3,1.25-3.44.14-1.76.41-1.43.29.89.6.87,0-.93-.08-1.46a2.41,2.41,0,0,1,.65-1.74,1.22,1.22,0,0,0,.27-1.47s-.15-.25.06-.86,1.07-4.2,1.07-4.2a12.44,12.44,0,0,0-.9,1.51,20,20,0,0,1-.79,2.94" transform="translate(-21.72 -5.02)"/><path d="M70,64.74a1.06,1.06,0,0,0-.29.37,1.08,1.08,0,0,0,.79.58,1.06,1.06,0,0,0,.66,0L71,65.4a1.91,1.91,0,0,1-.21-.33,2.57,2.57,0,0,1-.17-.67,1.2,1.2,0,0,0-.66.34" transform="translate(-21.72 -5.02)"/><path d="M103.89,46a7.28,7.28,0,0,1-3.22-.23c-.5-.2-.93-1.47-1.16-2.09s.23-.48.23-.48a20.63,20.63,0,0,0,3.32-.43c.67-.36.77-.56.4-.53s-1.63.23-1.63.23a4.69,4.69,0,0,1-2.62-.1c-.47-.13-.44-.37-.9-.83s-.4-.06-1.13.4-.5.43-.13.53.33-.23.93.36a30.5,30.5,0,0,1,2.23,3.76c.82,1.56,2.09,4.56,2.56,5.78s1.73,6.88,1.89,7.68a45.43,45.43,0,0,1,.53,6.55,5.32,5.32,0,0,1-1.49,4.12,3.61,3.61,0,0,0-.93,1.26,4.42,4.42,0,0,1-1.2,1.87,4.24,4.24,0,0,1-2.33.93,21.67,21.67,0,0,0,1.8-2.4,6.28,6.28,0,0,0,.23-2,1.16,1.16,0,0,1,.23.43,1.24,1.24,0,0,0,.34.5c1-.17,0-1.59-.77-2.72a39,39,0,0,0-3.42-3.73c1.06-.14,1.22.17,2.39.27s1.53.89,1.93.93.33-.2-.8-.9a8.3,8.3,0,0,0-3.75-.9c-.84,0-2.4,0-2.4,0-.46-.11-.36-.34.56-.77A14.37,14.37,0,0,1,99.77,63a4.65,4.65,0,0,1,2.4.67c.26.19.39,0,.39,0-.1-.37-1.29-1-2.92-1.27s-3.59.5-3.26.23a7.82,7.82,0,0,0,1.27-2.09c.16-.5-.23-.7-.5-.6s-.33.56-1.4,1.73a4.4,4.4,0,0,1-3.09,1.53A24.56,24.56,0,0,1,88,62.74c-1-.17-2.42-.5-3.09-.56s-.69-.3-.69-.3a5.48,5.48,0,0,1,.33-1.94,14.44,14.44,0,0,1,1.59-2.56c.77-1.19,1.37-1.09,1.86-1.39s0-.34,0-.34a4.09,4.09,0,0,0-1.76.78A10.51,10.51,0,0,0,85,53.53a4.37,4.37,0,0,0,2.31-.85c.3-.27.93-1.8.66-1.74s-.5,1.74-2.8,1.86a6.25,6.25,0,0,1-3.46-1.3A1.71,1.71,0,0,1,81,50.31a7.16,7.16,0,0,1,.84-1.67,4,4,0,0,0,.33-2.52,4.05,4.05,0,0,0-.81-1.72c-.15-.16-.77-.89-.88-1-.54-.54-1-.31-1-.14s.46.67.69,1,.7.57.5.9-.66.27-1.3.67-5.28,3.15-5.28,3.15a21.17,21.17,0,0,1-4.52,1.53c-1.34.6.36.47.69.47h9.16c2.13-.49-7.62-.39-7.3-.53s1-.31,1.53-.53c2.16-.94,4.56-2.21,5.36-2.53,1.25-.5,1.55-.45,1.75-.25a8.44,8.44,0,0,1-.2,2.74c-.15.9-.25,1.85.35,2.35a25.7,25.7,0,0,0,2.24,1.44,4.92,4.92,0,0,1,.7,4.39c-.61,1.49-2.08.95-3.08.7-.48-.11-1.36-.48-1.57-.49-2.42-.08-10.43.26-11.25.08s-1,.36-.5.36l9.77,0a6.34,6.34,0,0,1,3.59,1.19c.45.45,1.52,1.06,1.28,1.36s-5.64.2-5.64.2c-.7-.1-1.25.1-.85.3a38.63,38.63,0,0,0,4.59.1,11.81,11.81,0,0,1,6.95,2.23A16.13,16.13,0,0,1,91,68.3c.19.2-.33,0-.21.35a18.68,18.68,0,0,0,.93,2.19c.08.13-.51.12-.51.12l-13.47.43c-1.05,0-1.15-.5-1.15-.5l-4.23-4c-.55-.65-.85-.7-.85-.7a2.16,2.16,0,0,1-2-.75c-.6-.55-.55-.44-1-.35s-7.18.5-7.18.5c-.65-.5.4-.9.7-1.15a10.64,10.64,0,0,0,.75-.94,3.25,3.25,0,0,0,.79-1.3c.15-.55,1.5-.44,1.5-.44.9-.11,3,1.12,3.74,1.68s.91,1.12,1.06,1a1.51,1.51,0,0,1,.55-.4c.06,0,0-.52,0-.52a9.52,9.52,0,0,0-2.76-4.22c-1-.75-1.25-.75-1.15-.45s.65.6.65.6-.6.15-1.14.25-1.25.36-1.05.7,0,.75-.85.85-1,.5-1,.8a15.81,15.81,0,0,1-1.15,1.74,5.46,5.46,0,0,1-1.2,1c-.3.2-.29.65-.29,1s.6.59.6.59c-2.37,2.38-2.45,6.23-2.36,7.28S60.1,82,60.1,82c.63,4,.58,8.86.68,9.31s1.28.51,2.13.51a1.44,1.44,0,0,1,1.44,1c.2.55,0,.48.6.69a2.2,2.2,0,0,0,1.55-.25c2.49-.44,3,.56,4,.75s1.5-.25,1.85.15c.12.14.53.38,1,.82.86.91-.21,1.16-.21,1.16-.93.37-4.42.29-6.61.37-1.13,0-11.07-.08-12.12.19s.55.46.55.46c.33,0,13.1.1,18,0a12,12,0,0,1,1.91.09,1,1,0,0,1,.54.35c.45.5-.1,1.66-.38,2.5-.54,1.57-.5,2.27-1.53,2.81a4.13,4.13,0,0,1-2.31.54c-.9,0-1.4.8-1.25,1.75s1.38,1.51,1.38,1.51c7.58,2.73,16.62-.69,16.62-.69.8-.4.56-.34.56-.34-.56,0-.66-.18-.9-.55-.57-.85,1.21-1.53,1-1.89s-1.41,1.65-1.86,1c-.94-1.23,1.49-1.66,1.49-2.9,0-.26.24-.54-.44-2.07-.54-1.09-1.09-2.17-1.27-2.61a10.62,10.62,0,0,1-1.61-4.25c-.3-2.1.56-5.31,1-5A8.57,8.57,0,0,0,89.74,89c1.63.7,1.49,1.36,1.56,2.4a18.84,18.84,0,0,1-.59,3.29,4.89,4.89,0,0,0,0,3.22,13.85,13.85,0,0,1,.93,3.16c.16,1.53-1.53,3.45-1.53,3.45-.4.52-.3.58-.19.57a2.53,2.53,0,0,0,.52-.15c1-.49,1.83-2.41,2.1-3.32a2.35,2.35,0,0,0-.06-1.56,9.21,9.21,0,0,1-.93-2.86,13.41,13.41,0,0,1,.14-2.73c.6-2.24,1-3.87.48-4.81-.68-1.2-3.07-1.58-4.22-2a7.73,7.73,0,0,1-3.33-2.55,15.4,15.4,0,0,1-2-3.65c-.51-1.22-1.38-2.77-.93-3.61s1.23-.35,2-.35c9,0,15-.16,17.37-.42,3.81-.42,2.89-3.65,4.71-4.64,1-.53,1.29-2.85,1.38-4.17a12.18,12.18,0,0,0,.12,1.25,5.53,5.53,0,0,1-.26,2.59,20.76,20.76,0,0,1-1.84,2.6c-.5.69-1.4,3.14-2,3.34a1.66,1.66,0,0,0-1.1.8,3.19,3.19,0,0,0,.25,1.79c.25.8.58,1.1,1,1.23s1.79,1.27,2.92.73,3.19-3.19,3.19-3.19a79.8,79.8,0,0,1-3.86,11c-.61,1.53-1.11,2.58-.38,4a3.62,3.62,0,0,0,.52.75c.06.06.25,0,.18-.16a2.5,2.5,0,0,1-.4-.82c-.28-1.25.13-2,.87-3.64l.07-.15.08-.19A108.14,108.14,0,0,0,110.55,79c.14-.6.2-1.06-.93-.93s-1.73,0-1.66.33.73.4.6.73A10.83,10.83,0,0,1,106.37,82c-.73.47-.93.4-1.73-.06a7.32,7.32,0,0,1-1.53-1c-.33-.34-.39-1.34-.6-1.73s.27-.47.27-.47c.46-.06.66,1.06.86,1.46a2,2,0,0,0,1.73.53c.39-.13,1.33-.93,1.39-1.32s-.39-1.47.07-2.2,3.29-2.2,4.28-2.66,1.37-2.25,1.37-2.25c.86-3.2,1-10-.07-16.29a73.83,73.83,0,0,0-2.19-8.11,14.67,14.67,0,0,0-1.36-3c-.23-.27-1.19.44-1.19.44a11.65,11.65,0,0,1-3.78.73M65.73,60.24c.23-.06,1.06-.18,1.06-.18,1,0,1.29.52,1.29.52a7.43,7.43,0,0,1,1.7,2.89c.18.65.12.65-.7-.35a12.27,12.27,0,0,0-3-2.41c-.65-.35-.59-.41-.35-.47M84.36,86.29c.46.4.45.42.2,1a8,8,0,0,0-.62,2.81A29.4,29.4,0,0,1,82.79,84a5.23,5.23,0,0,0,1.57,2.26M94,75.94c-5.38.42-13.69,1.19-16.78-1.6a15.56,15.56,0,0,1-2.1-2,5.62,5.62,0,0,0-1.89-1.7c-.35-.1-.45.1.15.6s1.89,1.9,1.74,2.25-.5-.25-1.25-.65a4.19,4.19,0,0,0-3.08-.15s-.6.55-.06.6,2.1-.75,5.79,2.54,4.64,4.64,5,6.94,1.69,10.47,3.33,13.35,2.75,4.26,2,5.35-3.5,1.93-5.35,4.11c-1.15,1.36-2.89,2.06-3.68,1.82,0,0-.6-.2.1-.65,0,0,.34-.21,0-.41,0,0-.16,0-.6.45s-.9.85-1.4.4.05-.6.4-.8.3-.45-.15-.25-1,.9-1.69.7-.2-.5.09-.7,0-.4-.4-.1-.64.85-1.34.7-.75-.6-.2-.9.9-.4.8-.64-.55.14-1.2.44-1.1.55-1.59-.25.25-1.39,1-1.34a8.91,8.91,0,0,0,4.54-1.8c1-1,1.8-3,5.93-3.89,0,0,1.55-.1,1.6-.4s-.25-.4-1.35-.4a9.07,9.07,0,0,0-6.81,3.53,16.49,16.49,0,0,1,.74-2.45c.56-1.3,4.39-2.89,4.39-3.48s-2.59.11-2.82-.45c-.65-1.65-1-2.35-1.57-3.68-.05-.14-.49,0-1.61-.25a18.06,18.06,0,0,0-1.86-.58c-.08.15.41.68,1.1,1.85a19.45,19.45,0,0,1,1,1.79c.17.38-1.58,0-1.9-.58-1.27-2-1.82-3.19-3.15-5.21,0,0-.29-.48.91.08.55.26,4.43,2.34,7,1.26,1.58-.68,1.85-2.05,1.71-2.33s0,.17-.28.7c-.35.76-1.56,1.9-3.95,1.11-.9-.29-1.77-2.1-2.64-2.56a15.89,15.89,0,0,1-4.64-2,38,38,0,0,1-3.62-2.41c-.49-.35-1.19-.1-.49.85s6.24,8.42,6.44,9.13-.06,1.34-1.16.69a2.5,2.5,0,0,0-2-.26c-1,.4-2.09,1-2.3,0s0-3-.59-4c0,0-.65-.7-.4.45a6.56,6.56,0,0,1,.24,2.09c0,.35-.09.4-.74.5s-1.4,0-1.6-.45,0-6.43-1.09-10.77S58.41,69,61.7,66.66a5.87,5.87,0,0,1,2.4-.84c1.15,0,4.63-.3,4.63-.3s.9,1.19,1.65,1.19,1.29,0,1.5.2,4.18,4.48,4.53,4.84.9.39,1.7.3,12.59-.36,13.49-.45,1.88,0,1.69-.2a11.77,11.77,0,0,1-1.36-2.87c-.11-.29.45-.09.31-.32A26.38,26.38,0,0,0,90.56,66c-.6-.69.61-.4,1.9.5A27,27,0,0,1,95.16,69c.19.39.44.29.24-.15S93.31,66.27,88.92,64c0,0,5.34,0,7.43,1.6s4.49,3.88,3.44,6.78c0,0-.22,3.12-5.8,3.54m15.42-23.69a18.25,18.25,0,0,1,1.25,4.19c0,.4.55,9.07.65,12.16s-.36,4.54-.81,5.34-3.34,2.19-3.88,2.54a16.31,16.31,0,0,0-2,2.45c-.5.59-1,.49-1.05,0s1.05-1.65,1.05-1.65a19.43,19.43,0,0,1,2.64-4.14,5.69,5.69,0,0,0,.7-4.29c-.2-1.1-1.65-8.62-1.9-9.62s-.3-4.49-.59-5.33-1.35-1.7-2-2.7a13.07,13.07,0,0,1-1.75-4.13c-.09-1,1.25-.7,1.25-.7,1.84.11,4.64,0,4.64,0,.6,1.35,1.1,4.44,1.8,5.83" transform="translate(-21.72 -5.02)"/><path d="M93.06,27.29a5.08,5.08,0,0,1-1-2c-.14-.06-.37,1.07-.4,1.36s-.26,1.13-1,1S88.9,26.3,88.9,26.3A4.93,4.93,0,0,0,86.25,24a6.42,6.42,0,0,1-2.66-2.09,26.16,26.16,0,0,0-1.93-2.49l-1.43-1.37c-.3-.19-.43-.22-.3,0S81.33,20,81.33,20c.86,1,2.33,3.19,2.93,3.69a4.36,4.36,0,0,0,1.52.73l-.2.34c-.23.33,0,.53.17.53s.67-.4.67-.4l.52.36a2.55,2.55,0,0,1-.66,1c-.53.53-.8.2-1.13,0s-.2.17-.2.17a1.42,1.42,0,0,0,1.27.36,13.35,13.35,0,0,0,1.39-1.09l1.5,2.45c1,1.7,2.46,1.7,3.52,1.93.81.18,3.72.82,5.46,1.29a6.56,6.56,0,0,1,2.23,1.31,31.4,31.4,0,0,1,2.41,3.52c.77,1.26,2.6,4.72,2.66,4.95s-.5.6-.31.67.67-.11,1.31-.67a1.22,1.22,0,0,0,.16-1.43,14.5,14.5,0,0,0-1.13-2.56,22.5,22.5,0,0,1-1.69-4.55,6.47,6.47,0,0,1,.19-3.13,3.25,3.25,0,0,0,.15-.4,1.62,1.62,0,0,1,.86-.83,2.64,2.64,0,0,1,1.39,0c.07,0,.1-.15,0-.17a2.22,2.22,0,0,0-1.51,0,1.9,1.9,0,0,0-1,.67,6,6,0,0,0-.88,3.7,17.75,17.75,0,0,0,1.06,5.16s-2.76-4.49-3.75-5.88a7.26,7.26,0,0,0-4.19-2.57,5.24,5.24,0,0,1-3-1.79" transform="translate(-21.72 -5.02)"/><path d="M81.79,14.9a14.77,14.77,0,0,1,3.53-.6,6.93,6.93,0,0,1,3.22,1.26c.53.37,1.62.86,2.34,1.26A4,4,0,0,1,92,18.1a15.86,15.86,0,0,1,1,2.21c.06.44.1,1.73.26,1.73s.31-.46.24-.76,0-.47.46-.43.67.46,1.27.39.46-1,.19-1.16-.8-.46-1.34-.78a7,7,0,0,1-1.26-1.2c-.25-.36-.51-.77-.75-1.15a7.68,7.68,0,0,0-1.36-1.47,1.74,1.74,0,0,0,.48-.91c.29-1.24-.56-1.83-1.42-2.27a1.77,1.77,0,0,0,1.93-1.19c.19-.82-.09-1.65-2.19-2.14l-3-.69-.07.31c.6.14.75.39.61,1l-.92,4-.75-.08a5.47,5.47,0,0,0-1.78.21c-.83.35-2,.9-2,.9-.67.42-.27.39.19.29m6.59-5.15a.78.78,0,0,1,.21-.47.78.78,0,0,1,.62,0,1.15,1.15,0,0,1,1,1.57c-.22,1-.77,1.23-1.8,1l-.47-.11Zm-1,4.33.45-1.95.47.11c1.51.35,1.61,1,1.42,1.86a2,2,0,0,1-.5,1l-1.89-.8Z" transform="translate(-21.72 -5.02)"/><path d="M59.74,11.25a3.72,3.72,0,0,0-1.43.31l-2.71,1.1.11.29c.56-.23.84-.12,1.09.5l1.71,4.23c.15.39.16.64,0,.83-.6.25-.9-.12-1.37-.6L53,13.71l-.86,1,.95,5.1c.15.81.23,1.3-.33,1.89l.15.27,2-1.08-.16-.27a.72.72,0,0,1-1-.25,3,3,0,0,1-.24-.78L53.38,19l1.88-1,.81.83a2.86,2.86,0,0,1,.35.43c.14.26.09.42-.38.7l.15.27,2-1.08L60.91,18a3.56,3.56,0,0,0,1.28-.77,3.36,3.36,0,0,0,.52-3.61,3.4,3.4,0,0,0-3-2.35M53.31,18.5l-.6-3.14,2.21,2.25Zm7.47-.86c-.69.27-.77.08-1-.58L58.1,13c-.22-.55-.33-.82.28-1.06,1.06-.43,2-.17,2.88,2,1,2.42.49,3.33-.48,3.73" transform="translate(-21.72 -5.02)"/><path d="M37.93,33.94a3.48,3.48,0,0,1,0,3c-.31.51-.65.36-1.13.08L35,36l.1-.15a1.27,1.27,0,0,1,1.77-.67l.17-.28-2.34-1.41-.18.28a1.26,1.26,0,0,1,.19,1.86l-.09.15-1.58-1c-.6-.36-.84-.51-.46-1.15a3.11,3.11,0,0,1,2.55-1.27l0-.29-1.79-.46-2.59,4.37L30,37.74l.28.14a.65.65,0,0,1,.92-.32,2.25,2.25,0,0,1,.52.4l2.71,2.56-4.23-.63a1.36,1.36,0,0,1-.41-.09c-.2-.1-.29-.22-.07-.78l-.28-.13-1.23,2.52.28.14c.36-.56,1.06-.38,1.68-.29l5.56.81.31-.64L32,37.7c-1-.9-1-1.15-.85-1.68.27-.35.55-.36,1-.06l3.91,2.35c.57.34.64.63.33,1.15l.27.16,2.62-4.36-1.19-1.44Z" transform="translate(-21.72 -5.02)"/><path d="M116.19,33.89l-.27.17,1.19,1.9.26-.17a.71.71,0,0,1,.19-1,2.74,2.74,0,0,1,.77-.28l.6-.15,1.14,1.81-.78.86a2.41,2.41,0,0,1-.41.37c-.24.15-.42.11-.72-.34l-.27.17,1.37,2.19,1.33,2.71.28-.13c-.27-.55-.17-.83.42-1.12l4.1-2c.6-.29.88-.19,1.15.36l.28-.14-1.33-2.71-.28.14c.27.54.18.82-.42,1.11l-4.1,2c-.47.23-.75.22-1-.07-.39-.65,0-1,.46-1.5l4-4.33-1-.82-5.05,1.22c-.8.19-1.29.3-1.91-.24m6.31-.4-2.13,2.33-1-1.57Z" transform="translate(-21.72 -5.02)"/><path d="M126.32,41.06,122,42.62c-.63.23-.9.1-1.1-.47l-.3.11,1,2.84L122,45c-.21-.57-.08-.84.54-1.07l2-.72c.12.33.14.68-.84,1.57l-.94.87a7.15,7.15,0,0,0-.62.61l.54,1.52,1.15,4.95,1.85.22.08-.25a3.46,3.46,0,0,1-2.08-2.23c-.13-.58.22-.72.75-.84l1.94-.45,0,.19a1.26,1.26,0,0,1-.81,1.7l.07.32,2.67-.61-.07-.32c-1-.06-1.24-.39-1.43-1.21l0-.16,1.8-.42c.68-.16,1-.22,1.13.51a3.16,3.16,0,0,1-.94,2.68l.17.23,1.61-.92-1.15-4.94-.3.07c.14.59,0,.84-.66,1l-4.45,1c-.46.11-.72.06-.87-.2-.19-.7.26-1.16.76-1.68l.81-.78a2.06,2.06,0,0,0,.6-.79,1.77,1.77,0,0,0,2.15.94,1.79,1.79,0,0,0,1-2.49l-1.24-3.41-.29.11c.22.57.09.83-.53,1.06m1.43,1.57c.32.85.16,1.42-.74,1.75s-1.56.12-2-1.19l0-.15,1.91-.69c.51-.19.74-.25.92.28" transform="translate(-21.72 -5.02)"/><path d="M91.84,105.83s.14.08.19.12.49.25,1.22,1.52,2.57,4,2.57,4,.22.32.44.27.16-.41.16-.41l.17-2.53a1.84,1.84,0,0,1,1,0,3.76,3.76,0,0,1,2.23,1.55s.14.15.23.14a.66.66,0,0,0,.31-.08L101,110s.1-.18-.13-.15-.56-.39-.89-.68A5,5,0,0,0,97.86,108,2.15,2.15,0,0,0,99,105.9c-.21-1.2-.88-1.87-1.94-1.86a7,7,0,0,0-1.08.14c-.22,0-.2.16-.2.27s0,5.27,0,5.27l-2.19-3.45s-.39-.52-.08-.85c.07,0,.1-.06.08-.11s-.09-.07-.09-.07a13.56,13.56,0,0,0-1.54.42c-.09,0-.15.1-.1.17m4.84-.83c.68,0,.88,0,1.14.33a1.32,1.32,0,0,1-.09,1.62,1.84,1.84,0,0,1-1,.54Z" transform="translate(-21.72 -5.02)"/><path d="M113.81,93.7,116,95.61c1.24,1,1.66,1.56,1.6,1.82s.1.28.23.1.72-.84,1.43-1.79a1.89,1.89,0,0,0,.12-2,7.57,7.57,0,0,0-4-3,1.29,1.29,0,0,0-1.35.27c-.26.27-1.38,1.54-1.38,1.54-.23.26-.12.27.12.33a3.7,3.7,0,0,1,1,.81m.77-1.73a.81.81,0,0,1,1.11,0c.54.39,2.64,2.32,2.64,2.32a.89.89,0,0,1,.09,1.24L118,96l-3.87-3.51Z" transform="translate(-21.72 -5.02)"/><path d="M91.13,109.84a1.56,1.56,0,0,0,.63-.59,1.94,1.94,0,0,0-.2-1.85,1.58,1.58,0,0,0-1.86-.72c-.23,0-2,.44-2,.44-.23,0-.31.17-.14.24l.28.15a1.15,1.15,0,0,1,.39.73c.19,1.09.66,3.79.82,4.82a.84.84,0,0,1-.08.69c-.06.08,0,.15.09.15s3-.4,3.73-1a1.78,1.78,0,0,0,0-2.48,2.26,2.26,0,0,0-1.65-.54m-2-2.09a.11.11,0,0,1,.1-.14c.31-.06,1-.29,1.37.12a1.1,1.1,0,0,1,.27,1.06.84.84,0,0,1-.59.61l-.75.17Zm2.38,4.5a10.31,10.31,0,0,1-1.32.35l-.32-1.89.94-.16a1.2,1.2,0,0,1,1,.41.82.82,0,0,1-.32,1.29" transform="translate(-21.72 -5.02)"/><path d="M84.51,107.45a2.29,2.29,0,0,0-1.88.62c-1.3,1.49-.87,3.39-.56,4.61.42,1.63,2.33,2.72,3.64,1.85s1.36-2.94,1-4.45a3.14,3.14,0,0,0-2.24-2.63m.33,6.51a1.14,1.14,0,0,1-1.34-.65,12.15,12.15,0,0,1-.67-3.39,1.7,1.7,0,0,1,1.08-1.79c1-.18,1.56.88,1.65,1.38l.37,2.5s.31,1.66-1.09,1.95" transform="translate(-21.72 -5.02)"/><path d="M81.31,114.67a16.08,16.08,0,0,0-1-2.48,2.13,2.13,0,0,0-.53-.62,1.86,1.86,0,0,0,.8-1.76,1.74,1.74,0,0,0-1.77-1.63l-2.44,0s-.17.1,0,.17a.67.67,0,0,1,.33.71v5.15s.08.6-.3.79c0,0-.12.18.09.18l1.35,0c.28,0,.2-.12.12-.21a1.42,1.42,0,0,1-.13-.74v-2.48a1.35,1.35,0,0,1,1.47.73,10.2,10.2,0,0,1,1,2.51c0,.15-.14.1-.13.21s.49.06.63,0c.46,0,.84.11.88,0s-.13,0-.4-.54m-2.23-4.12a2.67,2.67,0,0,1-1.09,0v-1.65a1.25,1.25,0,0,1,.82,0,.72.72,0,0,1,.56.54c.07.34.09.9-.29,1.13" transform="translate(-21.72 -5.02)"/><path d="M66.57,107.13c0-.13-.09-.39-.12-.55a.49.49,0,0,0-.29-.36c-.78-.27-3.3-1.11-3.64-1.35,0,0-.2-.12-.45.12s-.33.4-.42.49,0,.12.08.13a6.37,6.37,0,0,1,1.35.57s.55.22.41.73c0,0-1.27,3.72-1.43,4.08a.88.88,0,0,1-1.58-.19c-.46-1.25-.4-2.59-1.1-3.17a2.13,2.13,0,0,0,1.33-1.4,2.21,2.21,0,0,0-.43-2,1.77,1.77,0,0,0-.41-.29c-.58-.24-2.19-.91-2.34-1s-.18,0-.16.19a1,1,0,0,1-.08.64c-.09.2-2.07,5.19-2.28,5.55a.55.55,0,0,1-.49.32s-.21,0-.12.14l1.46.72c.09,0,.16-.06.08-.21a1,1,0,0,1,.21-.85l.92-1.94a.24.24,0,0,1,.36-.14c.15.07,1.25.58,1.5,1.1.41.84.21,3,1.47,3.59s1.91.48,2.43-.33a34.8,34.8,0,0,0,1.65-4.48.63.63,0,0,1,.63-.36,10,10,0,0,1,1.28.36.15.15,0,0,0,.18-.14m-8-.5a3.31,3.31,0,0,1-.94-.36l.66-1.69c.13-.34.82,0,.82,0,.61.32.51.69.33,1.2s-.44.92-.87.84" transform="translate(-21.72 -5.02)"/><path d="M47.36,96.13A.58.58,0,0,0,47,96c-.09,0-.17.08-.13.25s.32.34-.4.75l-3,2.06.74-4.18s.1-.33,0-.47-.32-.46-.56-.29l-3.46,3.41s-.79.7-1.29.55c0,0-.46-.23-.34.11,0,.11,1.18,1.1,1.3,1.27.29.35.39.19.37,0a.91.91,0,0,1,.1-.5,21.26,21.26,0,0,1,2.54-2.41c.2-.16.25,0,.12.47s-.94,3.58-1,3.77,0,.38.19.36a8.58,8.58,0,0,0,1.41-.94l2,1.42a5,5,0,0,1-.41,1.23.6.6,0,0,1-.46.11c-.14,0-.27,0-.2.21L46,104.3s.28.16.25-.17a2.35,2.35,0,0,1,.13-.85c.17-.63,1.33-5.49,1.56-6.2,0,0,.1-.3,0-.4s-.38-.35-.58-.55m-1.56,4.28-1.22-.91,1.86-1.43Z" transform="translate(-21.72 -5.02)"/><path d="M33.85,85.3a2.2,2.2,0,0,0,2.6-.09,2,2,0,0,0,.25-2.14c-.15-.41-1.39-2.67-1.53-2.9s-.31-.06-.28.18-.5.31-.5.31-4.87.26-5.81.33-1.18-.37-1.18-.37-.29,0-.26.08l.75,1.63c.23,0,1.92,0,1.92,0s1.21,2,1.23,2.15a1.67,1.67,0,0,1-.86.82c-.19.06-.38-.12-.42-.14a.14.14,0,0,0-.19.06l.8,1.61a.15.15,0,0,0,.19,0,15.58,15.58,0,0,1,2.06-2.12c.28.38.35.5.27,1.46s-1.56,2.31-1.56,2.31l.75,1.17s.11.06.15-.08a.59.59,0,0,1,.08-.25c.24-.4.65-1.16.92-1.55a3.79,3.79,0,0,0,.62-2.41m1.26-3.09c.9,1,.9,2.1-.09,2.32a2.08,2.08,0,0,1-1.78-.62Zm-3.26,1.47-.68-1.34,2.36-.28Z" transform="translate(-21.72 -5.02)"/><path d="M78,5A56.28,56.28,0,0,0,21.88,57a40.9,40.9,0,0,0-.16,4.15v.52A56.28,56.28,0,1,0,78,5M24.71,75.52l0-.06c-.18-.69-.35-1.39-.51-2.08a.08.08,0,0,1,.11,0,3.24,3.24,0,0,0,1.75.38c.57-.08.51-.29.41-.78-.05-.3-1.55-.76-1.69-1a4.87,4.87,0,0,1-.55-1.65l-.14-.7a4.43,4.43,0,0,0-.8-1.56c-.05-.4-.1-.8-.14-1.2a5,5,0,0,0,.66-.19c.52-.24.94-.58.85-1.06a.53.53,0,0,0-.18-.24l-.16.1-.53.08c0-.18-.08-.28-.11-.46-.09-.42-.5-1.06-.1-1.3a15.3,15.3,0,0,0,.7-2.16,2.93,2.93,0,0,1,.83,1.25c.08.27.26.57.31.84.11.55-.67.8-.56,1.35.14.71,1.38.57,1.53,1.27s-.24,1.19-.69,1.83c-.15.21-.43.3-.38.55.26,1.31,2.59,1.45,2.85,2.76a2.42,2.42,0,0,1,0,1.28l-.95.12a1.59,1.59,0,0,0,.85,1.21c.52.25.61.66.71,1.17.05.27-.08.51,0,.78.13.64.8.87,1,1.56a2.27,2.27,0,0,1,.17.83c-.69-.56-2.83-.17-4.06-1.28a3.69,3.69,0,0,1-1.19-1.62m4.21-8.1A1.3,1.3,0,0,0,28.08,69c-.13,0-.25.42-.38.45s-.7-.79-.43-1,.4-.48.37-.62c-.11-.54-.56-.13-.67-.67l-.19-.94c-.08-.39-.53-.48-.61-.87,0-.16.08-.26,0-.42s-.14-.26-.18-.43-.17-.67-.22-.86a2.23,2.23,0,0,1,.64.5c.12.28.42.3.7.45.49.27.6.64,1,1.05.17.21.56.18.61.44.09.45-.14.86.19,1.36m1.21.07c-.07-.35-.39-.47-.46-.82-.17-.88.91-1.74,1.45-2.52.18-.27.43.24.71,0s.81-1.41,1.11-1.63c.33.4.13,1,.41,1.41a5.61,5.61,0,0,1,.83,1.32c.31.82,1,.65,1.15,1.51.13.67-.8,1-.67,1.65.05.23.45,0,.69.14a1.53,1.53,0,0,1,1,1.15A1.3,1.3,0,0,1,36,71c-.36.39-1,.57-.85,1.07a1.63,1.63,0,0,1-.48,1.6c-.26.28-.51.32-.43.69,0,.08.1.1.11.19.21,1-.63,1.64-1.57,2.29-.71.49-.4,1.11-1.08,1.66l-.53.1-.09-.47c-.21-1.07-1.41-1.35-1.62-2.43-.07-.36.17-.58.1-.94s-.36-.36-.41-.64c-.15-.75.46-1.2.31-2s-.66-.83-.78-1.45.37-.83.26-1.34c-.05-.27-.24-.37-.28-.63-.13-.61.78-.82,1.49-1,0-.11,0-.2,0-.31M133,64.67c-.19.73-.74,2.28-.33,3.27,0,.09.07.18.11.27-.18,1.42-.4,2.81-.69,4.19a12.33,12.33,0,0,0-.48,1.29c-.18.72-2,2.77-2.44,3.69l-.56,1.4-2,.15s.88-1.22.66-1.94-.49-2.84.12-3.61.37-1,.33-1.66-.33-2.21.84-3-.21-2.48,0-3,2.27-1.62,2.4-2.15,1.11-3.49,1.49-3.14a23.19,23.19,0,0,1,.49,4.27m-11.24,10.2c-.38-.76.13-1.58.33-2.15a2.33,2.33,0,0,0,.16-2.07c-.4-1,0-1.42.34-2.06a49.55,49.55,0,0,1,4.2-4.47c.49-.29-.23,1,.52,2.16a3.79,3.79,0,0,1,.26,3c-.14.58-.76,2-.52,2.49a3.48,3.48,0,0,1-.41,2.23c-.29.54-1.84,2.63-1.9,2.87s-.27,1.89-.27,1.89l-1.63-.21.35-.77c.11-1-1.06-2.19-1.43-3m10.23-25.06c.78,4.52,1.14,6.83.27,8.6s-4.25,4.15-4.73,4.44-.21-.27.4-1,2.71-3.85,2.65-4.41-.27-.28-.8.41-2.68,5.85-5.51,7.8a8.86,8.86,0,0,0-.93,1.2c-.26.48-.15-.45,0-1.09s0-4.16-.1-6.82a46.81,46.81,0,0,0-2.64-12.87A44,44,0,0,0,107,26.7a35.11,35.11,0,0,0-3.69-2.84C101,22.31,98,20.43,97,20.49c0,0-.31.13.2.47s3.71,2.06,5.91,3.64A41.09,41.09,0,0,1,109.42,30c4.48,4.62,5.87,6.83,9.2,13.69-.1-.09-.7-.85-.81-.62a17.89,17.89,0,0,1,1.72,2.85c.14.45.5,1.47.63,1.83a12.37,12.37,0,0,1,.28,1.52c.15,1.22.3,2.62-.23,1.29A10.61,10.61,0,0,0,118,47.89s-.77-.63-.93-.36,1.52,1.1,1.92,1.79,1.33,2.13.8,2.13a8.13,8.13,0,0,0-1.73-2,5,5,0,0,0-2.59-1.06,1,1,0,0,0-.57.23c-.19.2-.46.17-.49-.6s1-2,1-2.72c0,0,0-.6.29-.57s1.1,0,1.3.07,0-.3-.67-.33-.89,0-.63-.27a1.2,1.2,0,0,1,.84-.43c.43,0-.21-.34-.57-.17s-.27.47-.8,0a1.1,1.1,0,0,1-.1-1.69c.53-.37.86-.2.8-.37s-.32-.1-.65-.06c0,0-1.16.47-1.06,1.44s.64,1.74.47,2.66-.82,1.8-.69,2.45a2.72,2.72,0,0,0,1.44,1.89c1,.7.9.4,1.27,2s.94,5.66,1,6.6a4.32,4.32,0,0,1-.3,3,19.41,19.41,0,0,1-2.35,2.66c-.32.28-.37.63,0,.56s1.87-1.75,3-2.52c0,0,.62-.33.52-1.44a28.75,28.75,0,0,0-.45-5.69s-.89-5-1.09-5.48c0,0-.25-.43.3-.1s1.67,1.17,1.81,1.87a22.12,22.12,0,0,1,1.13,5.31,42.07,42.07,0,0,1,.27,5.18l.49.43c.25.19,1.13.87,1,1s-.52-.05-.65,0,.18.2.53.55a4.72,4.72,0,0,1,.68.8l0,.67-.13-.07a7.86,7.86,0,0,0-1-.67c-.17,0,.2.42.57.77a2.67,2.67,0,0,1,.55.58l-.07.44c-.35.32-.8-.2-1.07-.4s-.42-.12-.1.25,1,.77.32.87a4.68,4.68,0,0,1-2.7-.65s-.32-.14-.92.28a40.15,40.15,0,0,0-3.19,3.11c-.18.23-.75,1-.13.73s2.19-2.17,2.8-2.17.74.57.55,3.06c0,0-.11.43.07.43s.55-1.72.87-4.61c0,0,1.58.5,1.75,1.07s-.16,3-.82,6.31c-.61,3-.88,4.71-2.38,4.9a.83.83,0,0,1-.79-.55c-.15-.55.62-2.64.69-3s-.24-.3-.32,0a19.89,19.89,0,0,0-.77,3,2.68,2.68,0,0,0,.43,1,3.26,3.26,0,0,1,.07,2.52,39.89,39.89,0,0,1-7.41,9.84,41.28,41.28,0,0,1-10.73,8.15c-1.68.94-2.75,1.43-4.41,2.22-1.17.6-1.4.25-1.31.85s2.53-.61,3.44-1.06,2.2-1.11,3.56-1.91a42.81,42.81,0,0,0,9.92-7.41,40.49,40.49,0,0,0,8.81-12l1.14-1.6a5.19,5.19,0,0,1,1.93-.6c1.24,0,6,1.34,8.32-.35,0,0,.11,0,.38-.52a55.17,55.17,0,0,1-104.9.39c2.47,1.33,7.46.48,8.65.42s2.66,1.79,2.66,1.79C42.34,93,55,100.44,57.58,101.66c3.7,1.77,10.24,4.14,10.5,3.56s-2-1.08-5.61-2.4c-1.78-.66-4.65-1.94-5.24-2.27A44.07,44.07,0,0,1,46.87,93,43.39,43.39,0,0,1,36.06,75.64c-.07-.46-.44-.88-.47-1.26a3,3,0,0,1,.39-.55c.42-.52.3-1,.62-1.52.62-1,1.27-1.75,1-2.91a1.38,1.38,0,0,0-.22-.7c-.28-.36-.94-.27-1-.7-.13-.65.18-1.06.06-1.72s-.89-.79-1.37-1.27c-.64-.63-.5-.91-.87-1.68-.11-.24,0-.85-.21-1,0-.43-.22-.43-.23-1A44.11,44.11,0,0,1,45.73,30.78l1.32-1.33.32-.29c5.55-5.3,13.94-10.23,26.51-11.73,0,0,1.35,0,1.36-.55s-.33-.85-1.34-.7c0,0-19.28-.08-32.84,19.31a47.1,47.1,0,0,0-7.67,20.18c-.24,1.7-.51,4-.58,5a3.51,3.51,0,0,1-.66,1.7c-.36.4-.25,1-1.16.74-.69-.18-1,1-1.37,1.49-2.15-2.32-3.68-5.67-4.12-6.21s-.78-.94-.81-.38,2.24,3.9,2.87,4.61.94,1.24.44,1-3.43-2.35-4.38-4.08,0-7.8.25-8.7a1.15,1.15,0,0,0,0-.38,55.17,55.17,0,0,1,108-.77.41.41,0,0,0,0,.11" transform="translate(-21.72 -5.02)"/><path d="M63.28,50.92c.67,0,2.19.07,2.26-.23s-.59-.33-2.16-.49-1.43-.9-1.23-1.66S63.91,44,63.91,44a46.66,46.66,0,0,1,3.56-6.38c.5-.6,4-5.49,5.12-6.52a6,6,0,0,1,3.59-1.19c.5,0,1.36.83,1.69.93a18.71,18.71,0,0,0,2.33,0,1.89,1.89,0,0,1,1.53.86,32.17,32.17,0,0,1,1.56,3.16c.1.44-.2.5-.44.3a17.32,17.32,0,0,1-1.13-2.06c-.47-.86-1-1.17-1.16-1.19s.2.39.4.56a23,23,0,0,1,1.22,2.12c.14.24.23.84-.22.9S80.72,34,80.52,33.64s-1.3-.83-1.3-.83c-1.66-.6-1.59,0-2.55.4a3.42,3.42,0,0,1-2.6.1c-.43-.27-.69-.23-.59,0a1.91,1.91,0,0,0,1.32.8,23.06,23.06,0,0,0,3.63-.73c.53-.07,1.83.83,1.83.83a5.13,5.13,0,0,0-1.1.13,8.08,8.08,0,0,1-2.93.17,3.09,3.09,0,0,0-2.32.72,9.94,9.94,0,0,0-2.23,3.26c-.43,1.1-1.39,4.29-1.5,4.92S68.89,45.54,69,45.81s.7-.5.7-.5a9.83,9.83,0,0,1,3.52-2.89A20.83,20.83,0,0,0,75.43,40a24.37,24.37,0,0,1,4.16-4.21,1.67,1.67,0,0,1,1.4-.28c1,.74,1.29.3,1.49.14s.4.17.73.27.67-.1.93-.1a2.69,2.69,0,0,1,.9.47c.83,0,.23-.87.23-.87a14.07,14.07,0,0,1-2-2.75A5.73,5.73,0,0,0,81,30.46c-.6-.3-2-.07-2.82-.17a.81.81,0,0,1-.63-1.16c.1-.13.3-.43.1-.57s-.34-.5-.1-.46,1,0,1.06-.2,0-.23-.37-.23-1.06,0-1.09-.27a4.76,4.76,0,0,0-.16-.63,4,4,0,0,0,.69-.14.34.34,0,0,0-.06-.6,2.91,2.91,0,0,1-.83.23.76.76,0,0,1-.67-.7,6.44,6.44,0,0,1,.4-.77,9.52,9.52,0,0,0,.64-3.39,5.62,5.62,0,0,1,.43-2.09c.3-.53.86-1.36.86-1.36a2.83,2.83,0,0,1-1.69-1.36c-.34-.47-.37.13-.37.13a1.78,1.78,0,0,0,1.13,1.53,7.53,7.53,0,0,0-1.13,4.12A5.5,5.5,0,0,1,75.5,25a1.37,1.37,0,0,0-.13,1.16,4.7,4.7,0,0,0,.66.7,1.72,1.72,0,0,1-1,2.32,11.78,11.78,0,0,0-4.28,3.06c-.84,1-4.56,5.95-5.9,7.73a18.79,18.79,0,0,0-1.21,1.9c-1.12,2.1-3,5.86-3.53,6.82a3.82,3.82,0,0,1-3.48,1.53c-1.23,0-7.7,0-8.27.16s-5.79,0-5,.58c.18.14,19.27-.07,19.93,0" transform="translate(-21.72 -5.02)"/><path d="M90.27,23.83a37.57,37.57,0,0,1-3.66-1.45c-.86-.47-1.43-.64-1.76-.81,0,0-.3.07.3.41S88,23.4,88.51,23.83s1.2,1,1.06,1.5,0,1.13.53,1,.73-1,.7-1.62a.9.9,0,0,0-.53-.87" transform="translate(-21.72 -5.02)"/><path d="M88.84,22c.17-.11-.23-.61-.5-.7A5.55,5.55,0,0,1,87,19.91a2.27,2.27,0,0,0-1.73-.83A3.5,3.5,0,0,1,83,17.92l-.77-.77s-.47-.33-.16.24a9.76,9.76,0,0,0,1.62,1.73c.67.43,2.8,1.76,3.26,2s1.73,1,1.9.87" transform="translate(-21.72 -5.02)"/><path d="M91.44,22.28c.36-.57-.31-2.1-.44-2.53s-.63-1.13-.77-1.5-.36-.39-.13.37c0,0,.83,1.4.27,1.7s-1.13.06-1.66-.61l-.54-.63s-.23-.19-.16.2c0,0,1.66,2.2,2,2.66s1.09.9,1.47.34" transform="translate(-21.72 -5.02)"/><path d="M93.39,22.51s-.26,1.14.23,1.29a10.27,10.27,0,0,0,2.43.51c.34-.07.2-.77.13-.87s0-.43-.93-.77-1.79-.76-1.86-.16" transform="translate(-21.72 -5.02)"/><path d="M95.22,25.57s-1.4-.47-1.46-.11a1.81,1.81,0,0,0,.9,1.6c.92.43,2.22,1,2.59.83s-.5-1.6-.63-1.73a3.41,3.41,0,0,0-1.4-.59" transform="translate(-21.72 -5.02)"/><path d="M91.66,49.61s-1-.55-1.19-.1.5.93,2.39.9c5.69-.11,4.07-6.48,3.41-6.27,0,0,2,6.24-4.61,5.47" transform="translate(-21.72 -5.02)"/><path d="M92.21,55.1c-.4-.06-.65.09-.6.34s1.15.05,1.15.05a6.6,6.6,0,0,1,4.09,1.2,1.11,1.11,0,0,0,1.09.3c.35-.85-.89-1.3-.89-1.3-1.45-.79-4.84-.59-4.84-.59" transform="translate(-21.72 -5.02)"/><path d="M101,44.14c-.07.34,1.53.34,1.53.34a13.78,13.78,0,0,0,4.92-1.27c.86-.93.26-.53.26-.53A13.61,13.61,0,0,1,103.36,44c-1.06.13-2.33-.2-2.39.13" transform="translate(-21.72 -5.02)"/><path d="M108.35,77c-.53.26.07.33.07.33s1.12-.2,1.79-.27.47-.73.13-.66-2,.6-2,.6" transform="translate(-21.72 -5.02)"/><path d="M88.62,58.13c.2-.1-.05-.64.35-.64s1-.15.45-.55c-.21-.14-.8.1-1,.35s-.35.4-.14.55.14.39.34.29" transform="translate(-21.72 -5.02)"/><path d="M70.87,63.58c.7-1.86,2.77-.37,2.77-.37a27,27,0,0,1,3.52,4.85c.4.8.58.69,1,.69s10.55-.29,12.08-.37c.59,0,.25-.46,0-.46s-9.89.29-11.11.29c-1,0-1.15-.36-1.15-.36-2.09-3-2.71-4.23-4-5.14-1-.69-2.81-.7-3.23.54,0,.12,0,.45,0,.33" transform="translate(-21.72 -5.02)"/><path d="M69.26,81.9c-1.78-2.08-5.17-6.66-5.51-8.11s-.92-3.33.41-5.13a7.7,7.7,0,0,0,.59-.64c0-.07,0-.31-.23-.25a1.18,1.18,0,0,0-.37.19,6.32,6.32,0,0,0-1.85,3.89S62,73.79,64,76.44,66.34,80.72,65.1,80a6.79,6.79,0,0,1-3.19-2.89,3.59,3.59,0,0,0-.32-.57c-.12-.14-.26-.23-.24.07a4.81,4.81,0,0,0,.74,1.75,7.2,7.2,0,0,0,2.09,2c1.83,1.16,5.41,3.7,7.4,4.35a13.91,13.91,0,0,0,5,.87c3.85-.21,4-4.9,3.76-4.88S80,84.38,77.49,84.8a7.41,7.41,0,0,1-3.31-.09,7.9,7.9,0,0,1-4.92-2.81" transform="translate(-21.72 -5.02)"/><path d="M82.65,101c-.35-.2-.7.15.3.39a1.87,1.87,0,0,0,2-.49c.2-.35.2-.85-.7-.2a1.61,1.61,0,0,1-1.59.3" transform="translate(-21.72 -5.02)"/><path d="M41,92.75a1.82,1.82,0,0,1,1,1.37s0,.23.19.2a3.31,3.31,0,0,0,.68-.73.35.35,0,0,0,0-.47c-.51-.58-1.76-2-2.2-2.65-.1-.14-.14-.39-.5-.29-.1,0-.9.38-1,.46s-.06.2.08.25,1.13.43,1.08,1l-1.42,1.14s-.36.17-.73-.3-1.24-1.69-1.24-1.69a.26.26,0,0,0-.38-.06,2.66,2.66,0,0,1-1.37.65A1.33,1.33,0,0,1,34,90.06c.15-.69,1.29-1.57,2.15-2A1.52,1.52,0,0,1,37.33,88a1.42,1.42,0,0,1,.93,1.4,1.43,1.43,0,0,1-.25.76s-.07.06.17.18l1-.79c.09-.07.07-.15,0-.23s-.21-.06-.2-.26c0,0,0-1.55-1.19-1.92a4.14,4.14,0,0,0-4.22,1.67,4.39,4.39,0,0,0-.44.87,2.43,2.43,0,0,0,.29,2.19,2.48,2.48,0,0,0,3.15.47l1,1.27a.54.54,0,0,1,0,.65,2.52,2.52,0,0,1-1,.64l-.48-.06C36,94.81,36,95,36,95a18,18,0,0,1,1.09,1.43c.13.2.31,0,.27-.23a.51.51,0,0,1,.16-.48l3.56-3" transform="translate(-21.72 -5.02)"/><path d="M54.19,101.27c.18-.12.09-.23,0-.28-.36-.23-1.06-.73-1.2-.83s-.33-.06-.26.09a.94.94,0,0,1,.05.28c0,.33-.33.66-.33.66l-2.93,2.59s.89-3.27,1.12-4.47a.69.69,0,0,0-.25-.77c-.34-.29-.8-.76-1-.77s-.12.25-.12.25c.36.61.2,1.06.05,2-.09.59-1,4.5-1.27,5.64a.3.3,0,0,0,.43.37c.13-.1,5-4.29,5-4.29a2.67,2.67,0,0,1,.73-.44" transform="translate(-21.72 -5.02)"/><path d="M55.6,102.82a.58.58,0,0,1,.65-.36c.06,0,.19-.16.06-.25s-1-.52-1.27-.71-.33,0-.31.06a.6.6,0,0,1,0,.63l-2.7,5.1s-.27.49-.65.56c-.06,0-.2,0-.2.07s0,.1.16.21,1.28.68,1.42.77.24-.05.13-.19a1,1,0,0,1,.09-.81c.08-.17,2.59-5.08,2.59-5.08" transform="translate(-21.72 -5.02)"/><path d="M70,107.31c-.55-.21-.87.62-.87.62l-2,4-1.15-2.6s-.15-.33-.3-.38-.37.06-.38.25a4.33,4.33,0,0,0,.31.77c.45,1.13,1.42,3.9,1.45,4a.21.21,0,0,0,.19.18c.08,0,.21-.1.29-.27.53-1.07,2.43-5,2.67-5.53s.3-.82-.26-1" transform="translate(-21.72 -5.02)"/><path d="M99.94,103.74c0-.26-.5-.3,0-.64a.7.7,0,0,1,.94.08c.34.57,1,1.88,1,1.88a4.71,4.71,0,0,0-.53.2c-.12.06-.31.29-.29.42a.63.63,0,0,0,.34.54.55.55,0,0,0,.47,0,4.13,4.13,0,0,0,.44-.31l.93,1.44a3.18,3.18,0,0,1-1.46.78c-.32,0-.32.22-.19.33s.41.48.57.68.14.08.26,0c.57-.27,2.35-1.22,2.47-1.31s0-.16,0-.16a4.21,4.21,0,0,1-.59-.65,37.93,37.93,0,0,1-2.5-4.28,4.52,4.52,0,0,1,1.21-.69.09.09,0,0,0,0-.16c-.14-.17-.42-.49-.55-.66s-.59,0-.59,0c-.35.21-1.77,1.07-2.42,1.39a1.49,1.49,0,0,0-.53.46.72.72,0,0,0,.06.61c.32.64.88.37.86.06" transform="translate(-21.72 -5.02)"/><path d="M105.08,102.72c1.62.25,2.33.63,2.42,1.54s-.26,1.06-.57,1.15-.41,0-.06.58l.24.39s.26.52.42,0c.07-.23,1.19-.82,1.14-2a2.26,2.26,0,0,0-1.56-2.13c-.64-.16-2.4,0-2.69-1.16a.6.6,0,0,1,.34-.69.71.71,0,0,1,.38,0s.15,0,0-.19-.39-.44-.52-.61-.12-.1-.23,0a2.7,2.7,0,0,0-1,1.59c0,.57,0,1.23,1.68,1.47" transform="translate(-21.72 -5.02)"/><path d="M105.9,100.61l.1.14c.07.08.16.12.2,0a3.84,3.84,0,0,1,1-1.29,41.38,41.38,0,0,1,2.93,3.3c.5.72.53.76.46,1s0,.22.15.14,1.06-.86,1.06-.86.19-.18,0-.19-.23,0-.92-.63-3-3.39-3-3.39a2.3,2.3,0,0,1,1.51-.65.11.11,0,0,0,.14-.09s0-.15-.11-.21a6.23,6.23,0,0,0-.55-.44c-.23-.17-.51-.4-.86-.1l-2.39,2s-.21.13,0,.6c.1.26.32.72.32.72" transform="translate(-21.72 -5.02)"/><path d="M109,97a6.7,6.7,0,0,1,1.47.69c.22.14,4.52,2.63,4.52,2.63s.42.25.48-.12A40.53,40.53,0,0,0,113,95.49a9.1,9.1,0,0,1-.78-1.69c0-.26,0-.39-.35-.06s-.78.67-.88.8,0,.21.17.19.32-.11.71.63l1.6,3.07s.13.23-.42-.11c-.27-.17-2.73-1.58-3-1.8s-.22-.69-.5-.51l-.71.66s-.17.22.14.3" transform="translate(-21.72 -5.02)"/><path d="M115.81,89.11a2.76,2.76,0,0,1,.7.32c.23.18,3.21,2,4.17,2.84a2,2,0,0,1,.57.72c0,.06.06.28.23.16l.69-1c.12-.17.06-.27-.12-.32a3,3,0,0,1-.9-.46L117,88.57a1.41,1.41,0,0,1-.45-.5c0-.11-.16,0-.16,0l-.65.89s-.11.14.06.19" transform="translate(-21.72 -5.02)"/><path d="M117.05,87.47s.21-.16.81,0l6.06,1.1a.68.68,0,0,0,.44,0c.08,0,.09-.14,0-.29s-3-2.9-3-2.9,3.27.29,3.81.31c.37,0,.36-.22.25-.34L122.5,82.1s4.19.3,4.69.26a.78.78,0,0,0,.63-.43c.14-.34.32-.78.35-.83s-.17-.42-.34-.21-.85.27-1.79.19-4.47-.56-4.82-.59a1,1,0,0,0-1,.53c-.09.19-.14.37-.21.54s-.07.37,0,.45a.23.23,0,0,0,.18.07c.28,0,.12-.51.63,0s2.06,2.2,2.06,2.2l-3.45-.46a3.3,3.3,0,0,0-.42,0,.46.46,0,0,0-.27.74c.27.38,2.89,2.42,2.89,2.42l-3.27-.3s-.57,0-.59-.45c0-.11-.1-.12-.18,0s-.62.94-.76,1.15.09.28.25.12" transform="translate(-21.72 -5.02)"/><path d="M44.69,34.54c.41-.21,2.19-2,5-4.05,1.44-1,12.56-7.36,20.91-8,.31,0,1.27,0,1.51-.65.11-.31-.21-.57-.5-.65,0,0-8.76-.33-22.09,8.51,0,0-5.1,3.75-5.41,4.79,0,0-.06.36.57,0" transform="translate(-21.72 -5.02)"/><path d="M63,31.49c1.79-.54,1.56-1.56.7-1.56-3.87.9-9.72,3.35-17,8.2,0,0-5.1,3.75-5.41,4.79,0,0-.06.36.57,0,.41-.2,2.19-2,5-4A57.5,57.5,0,0,1,63,31.49" transform="translate(-21.72 -5.02)"/><path d="M58.74,39.22A69.4,69.4,0,0,0,49,44s-5.27,3.51-5.63,4.53c0,0-.07.35.57.08.42-.19,2.28-1.9,5.2-3.81a63.7,63.7,0,0,1,10.51-4.64c1.15-.3,1.51-1.91-.94-.93" transform="translate(-21.72 -5.02)"/><path d="M100.69,87c-.52-.41-.78-.51-.47-2s.21-5.82-.26-6.56-.57-.25-.57-.25a17.66,17.66,0,0,1,0,6.25c0,1.6-.78,1.24-.78,1.24a10.53,10.53,0,0,1-1.51-.52c-1-.42-.89-1.82-.89-1.82a15.18,15.18,0,0,0-.78-5.68c-.73-.46-.1,1.73-.1,1.73.47,1.61-.27,5-.06,5.67s1.88,1.43,3.6,1.8c.31.85,3,1.72,5.23,3a.47.47,0,0,0,.65,0c-.57-.79-3.53-2.4-4.06-2.82" transform="translate(-21.72 -5.02)"/><path d="M77.61,22.45s.74.16.82.44.4,1.18.6,1,0-.56.23-.64.67.35.87.24-.47-.71-.82-1a8.71,8.71,0,0,0-1.41-.7c-.24,0,0,.31,0,.31a.36.36,0,0,0-.31.34" transform="translate(-21.72 -5.02)"/><path d="M75.62,108.12a1,1,0,0,1-.45-.08,2.34,2.34,0,0,0-1-.46c-1.48-.16-2.16.89-1.9,2.24s.17,2.78-.77,3.35a1.79,1.79,0,0,1-1.54.16,1.23,1.23,0,0,1-.32-.18c-.15-.11-.19,0-.19.2s0,.62,0,.82a.18.18,0,0,0,.08.19,2.76,2.76,0,0,0,2.59-.17,3,3,0,0,0,1.41-2.53,7.39,7.39,0,0,0-.16-1c-.15-.63-.3-1.48.11-1.9s1.33,0,1.44.13a2.88,2.88,0,0,1,.25.26.11.11,0,0,0,.2,0l.36-.79a.1.1,0,0,0-.09-.16" transform="translate(-21.72 -5.02)"/><path d="M31.08,73.28c.06.34.67.28.74.62.13.67-.64,1-.5,1.69,0,.2.31.23.35.44a1.63,1.63,0,0,1-.2,1.19l.16-.06c.46-.18.38-.6.5-1s.37-.69.3-1.14-.21-.78.14-1.06,1-.24.93-.63a3.21,3.21,0,0,0-.68-1.43l.12-1c0-.06-.11-.06-.12-.13-.15-.77,2-.56,1.8-1.33s-2,0-2.18-.82,1.09-1.35.91-2.26-.65-1.27-.82-2.14v.23c-1.22.88-.73,2.06-.77,3.42,0,.37-.55.52-.48.89s.77.12.84.44.08.44.14.72a2,2,0,0,1-1.15.4,1.3,1.3,0,0,0,0,.21c.07.35.79.19.86.55a2,2,0,0,1-.27,1.73c-.15.24-.72.17-.66.45" transform="translate(-21.72 -5.02)"/></svg>